<svg version="1.1" id="Layer_1" xmlns="http://www.w3.org/2000/svg" xmlns:xlink="http://www.w3.org/1999/xlink" x="0px" y="0px"
	 width="100%" viewBox="0 0 1024 1024" enable-background="new 0 0 1024 1024" xml:space="preserve">
<path fill="#000000" opacity="1.000000" stroke="none" 
	d="
M403.000061,392.644348 
	C488.138519,392.652679 572.778809,392.958466 657.413818,392.427856 
	C675.148743,392.316681 707.151123,414.258514 709.545166,431.533173 
	C710.091797,435.477753 711.136597,439.416016 711.155334,443.360992 
	C711.295959,473.017029 711.403992,502.675293 711.182678,532.330322 
	C711.031921,552.535767 699.114014,568.715942 680.833862,574.088623 
	C674.416931,575.974670 667.727051,576.273071 661.048340,576.272705 
	C600.401917,576.269897 539.755310,576.333862 479.109375,576.160278 
	C474.282196,576.146484 471.869568,577.742554 469.407776,581.845947 
	C456.583954,603.221008 437.983215,616.139282 412.928650,619.442932 
	C403.607910,620.671936 394.488678,620.412476 385.710388,618.738525 
	C384.336853,616.703491 386.400391,615.502747 385.777252,613.762878 
	C381.826172,612.655151 377.390625,613.134155 373.201599,611.310730 
	C373.414093,607.447205 376.344238,605.444946 378.435699,603.065308 
	C384.034027,596.695496 387.008026,589.330688 387.783508,580.932617 
	C388.108002,577.418274 386.812256,576.020691 383.315582,576.243958 
	C377.470764,576.617065 371.512085,576.415955 365.922943,575.027649 
	C351.305237,571.396484 324.027863,554.038452 322.272644,532.808289 
	C322.068268,530.336365 321.660858,527.867371 321.660248,525.372498 
	C321.652985,496.048950 321.608887,466.725281 321.669800,437.401855 
	C321.725891,410.389679 339.422485,392.775024 366.511536,392.669678 
	C378.507568,392.623047 390.503876,392.650513 403.000061,392.644348 
M330.057556,441.520813 
	C330.107758,470.343964 329.794067,499.174103 330.344635,527.987671 
	C330.674652,545.261475 345.608612,559.263000 362.872955,559.725098 
	C371.532013,559.956909 380.201813,559.963379 388.863525,559.841064 
	C392.752197,559.786194 394.587524,561.458862 395.356903,565.157837 
	C397.822052,577.009583 395.934143,588.301697 391.418671,599.330688 
	C390.813599,600.808472 389.499573,602.108398 390.021698,604.176331 
	C390.567596,604.321655 391.172852,604.615051 391.780365,604.619751 
	C393.610046,604.633972 395.461548,604.695068 397.267670,604.457520 
	C423.393982,601.021912 443.054382,588.242798 454.767792,564.249756 
	C456.409637,560.886658 458.621216,559.764526 462.220337,559.829529 
	C472.214752,560.010010 482.214325,559.916870 492.211853,559.912231 
	C547.531067,559.886597 602.851135,560.017761 658.169006,559.735596 
	C677.010681,559.639526 692.444519,543.948853 692.609131,525.125793 
	C692.867126,495.635468 692.851501,466.139496 692.598145,436.648987 
	C692.425110,416.512817 676.114624,400.423737 656.183044,400.413574 
	C560.206787,400.364624 464.230560,400.384857 368.254364,400.440125 
	C360.856262,400.444397 353.647461,401.689148 347.207367,405.710358 
	C334.301178,413.768890 329.246094,425.707855 330.057556,441.520813 
z"/>
<path fill="#000000" opacity="1.000000" stroke="none" 
	d="
M520.215942,428.705963 
	C524.189514,428.668091 527.693726,428.816315 531.175720,428.603149 
	C534.682922,428.388458 535.945435,429.939636 535.890747,433.273407 
	C535.759888,441.252045 535.755310,449.232819 535.704712,457.212708 
	C535.696411,458.518250 535.422119,459.901215 536.891663,461.080902 
	C540.661743,459.408203 544.275208,457.005646 548.712219,456.674072 
	C563.991821,455.532349 575.060852,464.033264 578.155518,479.587219 
	C580.097168,489.345947 579.704834,499.051422 577.366882,508.739441 
	C572.112244,530.513062 548.701050,534.049744 536.933350,522.953308 
	C536.479553,522.525391 535.849976,522.283813 534.803650,521.656433 
	C534.528259,529.090759 529.270752,527.337524 525.035583,527.371155 
	C516.799805,527.436523 516.770447,527.393433 516.765808,519.337036 
	C516.749634,491.213898 516.725159,463.090637 516.807373,434.967743 
	C516.814270,432.614014 515.515198,429.266907 520.215942,428.705963 
M559.638062,502.963409 
	C559.802551,502.149200 560.003662,501.340393 560.125854,500.519897 
	C561.191650,493.364594 561.312744,486.234924 558.456482,479.439850 
	C556.424988,474.607208 551.462769,471.785034 546.318542,472.534729 
	C542.043335,473.157745 537.002563,473.842041 536.351501,479.165405 
	C535.345276,487.393494 534.754517,495.718079 535.959534,504.036926 
	C536.724304,509.316345 540.102661,511.832428 544.945679,512.629578 
	C552.345337,513.847534 556.414612,511.267029 559.638062,502.963409 
z"/>
<path fill="#000000" opacity="1.000000" stroke="none" 
	d="
M507.271240,496.002075 
	C507.571838,506.430145 506.235260,516.439819 509.379364,526.767822 
	C503.287537,527.843384 497.697205,527.317017 492.141968,527.221130 
	C489.419739,527.174133 490.309906,523.969177 488.336823,522.636414 
	C482.137787,527.450684 475.160675,529.801819 467.070679,528.361206 
	C455.699829,526.336365 448.797241,519.077515 448.049408,507.902283 
	C447.413239,498.395477 453.576324,489.965363 463.709381,486.713043 
	C470.086731,484.666168 476.669128,483.651764 483.368164,483.792786 
	C486.582031,483.860443 487.893372,482.695892 487.727234,479.413147 
	C487.517975,475.278534 485.814453,472.524445 481.776611,471.184265 
	C477.342010,469.712372 472.555389,470.192841 470.603577,474.043182 
	C467.987305,479.204407 464.251495,479.075989 459.883759,478.889374 
	C459.218750,478.860962 458.544891,478.945251 457.886444,478.873535 
	C455.333130,478.595398 451.815247,480.035919 450.541626,477.301453 
	C449.277924,474.588196 450.973511,471.460815 452.550659,468.884308 
	C459.144714,458.111969 469.764771,455.474518 481.116791,456.311401 
	C499.155487,457.641235 506.728455,466.324341 507.206329,484.510406 
	C507.302551,488.172485 507.252594,491.838379 507.271240,496.002075 
M487.386322,507.383545 
	C488.700897,494.573120 486.550171,492.802002 474.203949,496.599731 
	C473.104553,496.937927 471.976105,497.413208 471.067230,498.098267 
	C467.605225,500.707825 466.732117,504.357788 467.696686,508.351959 
	C468.624908,512.195801 471.772766,513.476868 475.319550,513.590576 
	C480.081512,513.743408 484.117279,512.053162 487.386322,507.383545 
z"/>
<path fill="#000000" opacity="1.000000" stroke="none" 
	d="
M417.149963,500.000000 
	C417.148895,507.823853 417.042694,515.149841 417.190063,522.470642 
	C417.263611,526.124390 415.825104,527.619263 412.169769,527.411987 
	C408.851562,527.223755 405.498505,527.174500 402.188873,527.428833 
	C397.921692,527.756836 396.777557,525.809082 396.798523,521.839233 
	C396.910126,500.700531 396.825165,479.560883 396.822327,458.421539 
	C396.821075,449.384033 396.836578,449.383545 388.024384,449.375488 
	C383.030884,449.370911 378.036102,449.299255 373.044342,449.390961 
	C370.153015,449.444092 368.796417,448.360138 368.801117,445.320740 
	C368.823273,430.923950 368.134155,433.794922 379.513794,433.703827 
	C399.320312,433.545227 419.130127,433.768066 438.935852,433.565765 
	C443.556854,433.518555 445.517883,434.713867 445.357178,439.681824 
	C444.996460,450.834198 446.094666,449.213379 435.694519,449.363068 
	C431.201172,449.427765 426.693298,449.599152 422.215973,449.327209 
	C418.193451,449.082886 417.055939,450.738312 417.094269,454.558655 
	C417.244659,469.537750 417.151947,484.519348 417.149963,500.000000 
z"/>
<path fill="#000000" opacity="1.000000" stroke="none" 
	d="
M606.247009,432.203491 
	C606.276245,462.136139 606.174805,491.587189 606.400635,521.035767 
	C606.439575,526.113892 604.897217,527.607056 599.874207,527.513306 
	C586.849548,527.270386 586.817749,527.489441 586.807861,514.587891 
	C586.787842,488.465393 586.794861,462.342865 586.804260,436.220367 
	C586.806946,428.687347 586.828003,428.681763 594.600037,428.662323 
	C597.261963,428.655640 599.924011,428.697418 602.585999,428.692780 
	C604.657288,428.689148 606.212463,429.269287 606.247009,432.203491 
z"/>
<path fill="#000000" opacity="1.000000" stroke="none" 
	d="
M635.506470,526.531982 
	C629.555054,527.878052 623.942139,527.282349 618.684570,527.248352 
	C617.279907,525.750793 617.600769,524.365723 617.601196,523.063599 
	C617.607727,503.068909 617.746216,483.073120 617.554810,463.080414 
	C617.511963,458.604309 618.721436,456.483826 623.406128,456.978699 
	C625.218018,457.170105 627.075012,457.095459 628.899902,456.971924 
	C632.992737,456.694855 635.906738,457.737549 635.440063,462.594299 
	C637.584229,463.094818 638.320374,461.465546 639.324890,460.548706 
	C641.487793,458.574738 643.967407,457.328308 646.790649,456.738647 
	C654.498718,455.128815 656.369202,456.627686 656.365662,464.342285 
	C656.364075,467.814667 656.365356,471.287048 656.365356,474.573944 
	C653.727112,476.163055 651.357971,475.254089 649.107056,475.348785 
	C640.045715,475.730103 636.492615,479.350677 636.331543,488.257751 
	C636.102844,500.900970 636.965637,513.558167 635.506470,526.531982 
z"/>
</svg>